
<svg width="60" height="60" viewBox="0 0 60 60" xmlns="http://www.w3.org/2000/svg">
  <path d="M54.627 0l.83.828-1.415 1.415L51.8 0h2.827zM5.373 0l-.83.828L5.96 2.243 8.2 0H5.374zM48.97 0l3.657 3.657-1.414 1.414L46.143 0h2.828zM11.03 0L7.372 3.657 8.787 5.07 13.857 0H11.03zm32.284 0L49.8 6.485 48.384 7.9l-7.9-7.9h2.83zm-18.313 0h-2.83l6.486 6.485 1.414-1.414L24.97 0zm-12 0L4.143 8.828l1.415 1.414L13.7 2.1 12.284.686l-1.313 1.313L8.544 0h2.83zM0 8.84l2.1 2.1-1.413 1.414-2.1-2.1L0 8.844zm0 6.585l2.1 2.1-1.413 1.414-2.1-2.1L0 15.43zm0 6.585l2.1 2.1-1.413 1.414-2.1-2.1L0 22.017zm0 6.585l2.1 2.1-1.413 1.414-2.1-2.1L0 28.602zm0 6.585l2.1 2.1-1.413 1.414-2.1-2.1L0 35.19zm0 6.585l2.1 2.1-1.413 1.414-2.1-2.1L0 41.77zm0 6.586l2.1 2.1-1.413 1.414-2.1-2.1L0 48.36zm0 6.585l2.1 2.1-1.413 1.414-2.1-2.1L0 54.942zm0 6.585l2.1 2.1-1.413 1.414-2.1-2.1L0 61.53zm60-53.014l-2.1 2.1 1.414 1.414 2.1-2.1-1.413-1.414zM60 15.43l-2.1 2.1 1.414 1.414 2.1-2.1-1.413-1.414zM60 22.017l-2.1 2.1 1.414 1.414 2.1-2.1-1.413-1.414zM60 28.602l-2.1 2.1 1.414 1.414 2.1-2.1-1.413-1.414zM60 35.19l-2.1 2.1 1.414 1.414 2.1-2.1-1.413-1.414zM60 41.77l-2.1 2.1 1.414 1.414 2.1-2.1-1.413-1.414zM60 48.354l-2.1 2.1 1.414 1.414 2.1-2.1-1.413-1.414zM60 54.942l-2.1 2.1 1.414 1.414 2.1-2.1-1.413-1.414zM60 61.53l-2.1 2.1 1.414 1.414 2.1-2.1-1.413-1.414zM46.142 60l1.414-1.414L44 55.03V60h2.142zm-5.657 0l1.414 1.414L46.484 60h-6zM32.03 60l5.657-5.657-1.414-1.414L30 59.172V60h2.03zm-5.657 0l5.657 5.657 1.414-1.414L27.9 60h-1.524zm-5.657 0l1.414 1.414L28.284 60h-7.57zm-5.657 0l1.414-1.414L13.4 55.504l-1.414 1.414 4.97 4.97 1.417-1.417L21.17 60h-1.524zm-5.657 0l1.414-1.414L8.97 55.03V60h2.142zm-5.657 0l1.414 1.414L15.313 60h-6zM3.373 60l-1.415 1.414L8.344 60H3.374zm-1.415 0L0 61.414l1.414 1.414L4.1 60H1.96z" fill="#2a9d8f" fill-opacity="0.04" fill-rule="evenodd"/>
</svg>
